# ProBuilder 4.2.3
# https://unity3d.com/unity/features/worldbuilding/probuilder
# 4/30/2020 6:37:24 PM

mtllib ./Cube.mtl
o Cube

g Cube
v -0.01240235 -0.01239355 0.01251754
v 0.01259766 -0.01260643 0.01248243
v -0.01259766 0.01260643 0.01248243
v 0.01259766 0.01260643 0.01248243
v 0.01259765 -0.01242866 -0.01248243
v 0.01259765 0.01257132 -0.01251754
v -0.01240235 -0.01242866 -0.01248243
v -0.01240235 0.01257132 -0.01251754

vt 0.9999999 9.764335E-09
vt -5.960464E-08 -1.152512E-08
vt 1 1
vt 1.192093E-07 1

vn 0.001416484 0.001415499 0.999998
vn 0.0007082422 0.0007077496 0.999999
vn 0 0 1
vn 1 0 -1.492213E-07
vn 0 -0.001404435 -0.999999
vn -1 0 0
vn -0.9999695 -0.003911434 -0.003900463
vn -0.999939 -0.007822867 -0.007800926
vn 0 0.999999 -0.001404435
vn 0 -0.999999 0.001404286
vn -0.004262296 -0.9999686 -0.002858059
vn -0.008524593 -0.9999384 -0.007120403

usemtl ProBuilderDefault
f 1/1/1 2/2/2 4/4/3 3/3/2
f 2/1/4 5/2/4 6/4/4 4/3/4
f 5/1/5 7/2/5 8/4/5 6/3/5
f 7/1/6 1/2/7 3/4/8 8/3/7
f 3/4/9 4/3/9 6/1/9 8/2/9
f 7/1/10 5/2/11 2/4/12 1/3/11

